<?xml version="1.0" encoding="UTF-8"?>
<svg id="Layer_1" xmlns="http://www.w3.org/2000/svg" version="1.1" viewBox="0 0 224 60">
  <!-- Generator: Adobe Illustrator 29.1.0, SVG Export Plug-In . SVG Version: 2.1.0 Build 67)  -->
  <defs>
    <style>
      .st0 {
        fill: #3d3d3f;
      }

      .st1 {
        fill: #ff5f6b;
      }
    </style>
  </defs>
  <g id="Group_1178">
    <g id="Group_1176">
      <path id="Path_840" class="st0" d="M85.1,49.2c-3.5,0-6.9-1.4-9.2-4.1-2.5-2.8-3.9-6.6-3.7-10.4-.1-3.8,1.2-7.5,3.7-10.3,2.3-2.7,5.8-4.2,9.3-4.1,1.7,0,3.3.4,4.8,1.1,1.4.7,2.7,1.7,3.5,3v-14.3h7v38.4h-6.6v-4c-.9,1.5-2.2,2.7-3.8,3.4-1.6.8-3.3,1.2-5.1,1.2M86.5,26.6c-2,0-3.9.8-5.2,2.3-1.5,1.6-2.2,3.7-2.1,5.8,0,2.2.7,4.3,2.1,5.9,2.6,2.9,7,3.1,9.9.5.2-.1.3-.3.5-.5,1.5-1.6,2.2-3.8,2.1-6,0-2.2-.7-4.3-2.1-5.9-1.3-1.5-3.2-2.3-5.2-2.2"/>
      <path id="Path_841" class="st0" d="M108.5,45.1c-2.8-2.7-4.3-6.4-4.2-10.3-.1-3.8,1.3-7.6,4-10.3,2.6-2.8,6.3-4.3,10.1-4.2,3.5-.1,6.9,1.2,9.4,3.6,2.4,2.4,3.7,5.8,3.6,9.2,0,1.1-.2,2.3-.4,3.4h-19.4c.1,1.9,1.1,3.7,2.6,4.9,1.6,1.2,3.5,1.8,5.5,1.7,2.8,0,5.4-1.1,7.3-3.1l3.9,4.7c-3.1,3-7.2,4.6-11.5,4.6-4,.2-8-1.3-10.9-4.1M118.4,26.2c-1.6,0-3.2.5-4.5,1.5-1.2,1-2.1,2.4-2.2,4h12.9c0-1.6-.8-3-1.9-4-1.2-1-2.7-1.5-4.2-1.5"/>
      <path id="Path_842" class="st0" d="M132.8,43l4.8-3.5c1.7,2.7,3.9,4.1,6.6,4.1,1.1,0,2.1-.2,3.1-.6.7-.3,1.1-1,1.1-1.7,0-.8-.5-1.6-1.2-2-1.5-.8-3.1-1.5-4.8-2-2.4-.7-4.6-1.8-6.5-3.4-1.4-1.4-2.2-3.3-2.1-5.2,0-2.4,1.1-4.6,3.1-5.9,4-2.8,9.3-3.1,13.6-.8,1.7.9,3.1,2.3,4,4l-4.7,3.4c-1.1-2-3.2-3.3-5.5-3.2-1,0-1.9.2-2.8.7-.7.4-1.1,1.1-1.1,1.8,0,.8.5,1.5,1.2,1.8,1.4.8,3,1.4,4.5,2,2.4.8,4.7,2,6.7,3.5,1.5,1.3,2.3,3.3,2.1,5.3,0,2.3-1.1,4.5-3,5.9-2.2,1.6-5,2.5-7.8,2.4-2.4,0-4.7-.5-6.8-1.7-2-1-3.6-2.6-4.6-4.6"/>
      <path id="Path_843" class="st0" d="M159.2,15.8c-.8-.7-1.2-1.8-1.2-2.8,0-1.1.4-2.1,1.2-2.8,1.6-1.5,4.1-1.5,5.8,0,.8.7,1.2,1.7,1.2,2.8,0,1.1-.4,2.1-1.2,2.8-1.6,1.6-4.2,1.6-5.8,0M158.6,20.9h7v27.6h-7v-27.6Z"/>
      <path id="Path_844" class="st0" d="M168.8,52.5c0-2.5,1.5-4.3,4.4-5.6-1.3-.9-2-2.4-2-4,0-1.9.8-3.8,2.3-5.1-2.4-1.7-3.9-4.5-3.8-7.5,0-2.7,1.2-5.3,3.3-7,2.2-1.9,5.1-2.9,8.1-2.9,1.3,0,2.6.2,3.8.6h13.7v5.4h-7.1c.6,1.2,1,2.5,1,3.8,0,2.7-1.2,5.4-3.3,7.1-2.3,1.9-5.2,3-8.1,2.9-.7,0-1.4,0-2.1-.2-.9.5-1.4,1-1.4,1.7,0,.5.2.9.6,1.2.5.3,1,.4,1.5.4h6.9c2.5-.1,4.9.7,6.8,2.2,1.7,1.4,2.7,3.5,2.6,5.7,0,2.5-1.3,4.6-3.9,6.2s-6,2.5-10.3,2.5c-4,0-7.1-.7-9.5-2.1-2.4-1.4-3.5-3.2-3.5-5.5M175.7,51.5c0,.9.6,1.6,1.7,2.1,1.4.6,3,.8,4.5.8,1.8,0,3.6-.2,5.3-.8,1.2-.5,1.9-1.3,1.9-2.2,0-.8-.4-1.5-1-1.9-.8-.5-1.6-.7-2.5-.7h-7.7c-1.5.6-2.2,1.5-2.2,2.7M177.5,27c-.9.8-1.5,2-1.4,3.2,0,1.2.5,2.4,1.4,3.2,1,.9,2.2,1.4,3.5,1.3,1.3,0,2.6-.4,3.6-1.3.9-.8,1.5-2,1.5-3.2,0-1.2-.5-2.4-1.5-3.2-1-.9-2.3-1.3-3.6-1.3-1.3,0-2.6.4-3.5,1.3"/>
      <path id="Path_845" class="st0" d="M198,48.6v-27.6h3c2.1,0,3.8,1.7,3.8,3.8,1.8-3,4.6-4.4,8.5-4.4,2.9-.1,5.8,1,7.8,3.1,1.9,2.1,2.9,4.9,2.9,8.4v16.7h-7v-15.9c0-1.6-.5-3.2-1.5-4.5-2.4-2.2-6.1-2.1-8.4.3-.1.1-.2.3-.4.4-1.1,1.6-1.7,3.5-1.6,5.4v14.3h-7Z"/>
    </g>
    <g id="Group_1177">
      <path id="Path_12792" class="st1" d="M0,10.1v7.5h18.6L3.4,48.6h8.4l13.7-27.7c1.8-3.7.3-8.2-3.4-10.1-1-.5-2.2-.8-3.3-.8H0Z"/>
      <path id="Path_12793" class="st1" d="M56.7,25.6h-8c-2.2,0-4-1.8-4-4s1.8-4,4-4h20.2v-7.5h-20.2c-1.5,0-2.9.3-4.3.8l-6.8,13.8c1.4,5,5.9,8.4,11.1,8.4h8c2.2,0,4,1.8,4,4s-1.8,4-4,4h-27.1s-3.7,7.5-3.7,7.5h30.9c6.4,0,11.6-5,11.6-11.4s-5-11.6-11.4-11.6c0,0-.1,0-.2,0h0Z"/>
      <path id="Path_12794" class="st1" d="M9.9,0v7.5h24.9L14.6,48.6h8.4L41.6,10.9c1.8-3.7.3-8.2-3.4-10.1C37.2.3,36,0,34.9,0H9.9Z"/>
    </g>
  </g>
</svg>